<svg width="512" height="512" xmlns="http://www.w3.org/2000/svg">

 <g>
  <title>background</title>
  <rect fill="none" id="canvas_background" height="402" width="582" y="-1" x="-1"/>
 </g>
 <g>
  <title>Layer 1</title>
  <path fill="#ffffff" id="svg_3" d="m491.318,235.318l-470.636,0c-11.422,0 -20.682,9.26 -20.682,20.682c0,11.423 9.26,20.682 20.682,20.682l470.636,0c11.423,0 20.682,-9.259 20.682,-20.682c0,-11.422 -9.259,-20.682 -20.682,-20.682z"/>
  <path fill="#ffffff" id="svg_6" d="m49.932,256l161.863,-161.864c8.077,-8.077 8.077,-21.172 0,-29.249c-8.077,-8.076 -21.172,-8.076 -29.249,0l-176.488,176.488c-8.077,8.077 -8.077,21.172 0,29.249l176.488,176.488c4.038,4.039 9.332,6.058 14.625,6.058c5.293,0 10.587,-2.019 14.625,-6.058c8.077,-8.077 8.077,-21.172 0,-29.249l-161.864,-161.863z"/>
  <g id="svg_21"/>
 </g>
</svg>